<svg width="100" height="92" viewBox="0 0 100 92" fill="none" xmlns="http://www.w3.org/2000/svg">
<path fill-rule="evenodd" clip-rule="evenodd" d="M5.43332 27.4684L78.4407 10.7377L77.429 6.22838C77.1479 4.94485 75.8666 4.13846 74.6077 4.42236L6.18637 19.9947C4.91617 20.2787 4.1181 21.5622 4.39902 22.8456C4.74742 24.3789 5.08476 25.9351 5.43332 27.4684ZM4.82627 15.9057L74.1131 0.151707C77.4178 -0.597875 80.7112 1.50332 81.4532 4.84272L88.7146 37.2707H84.3758L81.0822 22.5844L8.07467 39.3151L12.5934 59.4534L12.9981 61.2367C13.1555 61.9524 13.8636 62.4179 14.583 62.2476L15.1224 62.1227V66.4161L15.0438 66.4398C12.3011 67.0645 9.56971 65.304 8.94022 62.544L0.161356 23.335C-0.209639 21.6653 0.0602347 20.0979 0.959435 18.6441C1.85863 17.1902 3.17386 16.2815 4.82611 15.9066L4.82627 15.9057ZM22.8111 38.4405C19.4277 38.4405 16.6737 41.2348 16.6737 44.6536V84.9984C16.6737 88.4171 19.4277 91.2 22.8111 91.2H93.8516C97.2349 91.2 100 88.4058 100 84.9984V44.6536C100 41.2348 97.2349 38.4405 93.8516 38.4405H22.8111ZM92.3566 56.5003C92.3566 53.7629 92.3566 51.0257 92.3566 48.2882C92.3566 47.7543 91.9405 47.3342 91.4123 47.3342C85.3537 47.3342 79.295 47.3342 73.2363 47.3342C72.7192 47.3342 72.2921 47.7657 72.2921 48.2882C72.2921 51.0257 72.2921 53.7629 72.2921 56.5003C72.2921 57.0229 72.7192 57.4544 73.2363 57.4544C79.295 57.4544 85.3537 57.4544 91.4123 57.4544C91.9181 57.4544 92.3566 57.0342 92.3566 56.5003ZM78.9578 81.3977C78.4295 81.3977 78.0022 80.9661 78.0022 80.4436V78.5355C78.0022 78.0129 78.4295 77.5813 78.9578 77.5813H91.401C91.9181 77.5813 92.3452 78.0129 92.3452 78.5355V80.4436C92.3452 80.9661 91.9181 81.3977 91.401 81.3977H78.9578ZM61.5911 81.3977C61.074 81.3977 60.6469 80.9661 60.6469 80.4436V78.5468C60.6469 78.0129 61.074 77.5927 61.5911 77.5927H74.0456C74.5626 77.5927 74.9899 78.0243 74.9899 78.5468V80.4436C74.9899 80.9661 74.5626 81.3977 74.0456 81.3977H61.5911ZM44.2355 81.3977C43.7185 81.3977 43.2914 80.9661 43.2914 80.4436V78.5468C43.2914 78.0129 43.7185 77.5927 44.2355 77.5927H56.6903C57.2071 77.5927 57.6344 78.0243 57.6344 78.5468V80.4436C57.6344 80.9661 57.2071 81.3977 56.6903 81.3977H44.2355ZM26.8802 81.3977C26.3632 81.3977 25.9359 80.9661 25.9359 80.4436V78.5468C25.9359 78.0129 26.3632 77.5927 26.8802 77.5927H39.3348C39.8518 77.5927 40.2789 78.0243 40.2789 78.5468V80.4436C40.2789 80.9661 39.8518 81.3977 39.3348 81.3977H26.8802Z" fill="#4586F7" fill-opacity="0.35"/>
</svg>
